<svg width="182" height="65" viewBox="0 0 182 65" fill="none" xmlns="http://www.w3.org/2000/svg">
<rect width="182" height="65" rx="4" fill="black"/>
<path d="M69.296 40.556H71.51V45.578C70.862 46.094 70.106 46.49 69.242 46.766C68.378 47.042 67.49 47.18 66.578 47.18C65.294 47.18 64.136 46.904 63.104 46.352C62.072 45.788 61.262 45.014 60.674 44.03C60.086 43.046 59.792 41.936 59.792 40.7C59.792 39.464 60.086 38.354 60.674 37.37C61.262 36.386 62.072 35.618 63.104 35.066C64.148 34.502 65.318 34.22 66.614 34.22C67.67 34.22 68.63 34.394 69.494 34.742C70.358 35.09 71.084 35.6 71.672 36.272L70.196 37.712C69.236 36.752 68.078 36.272 66.722 36.272C65.834 36.272 65.042 36.458 64.346 36.83C63.662 37.202 63.122 37.724 62.726 38.396C62.342 39.068 62.15 39.836 62.15 40.7C62.15 41.54 62.342 42.296 62.726 42.968C63.122 43.64 63.662 44.168 64.346 44.552C65.042 44.936 65.828 45.128 66.704 45.128C67.688 45.128 68.552 44.912 69.296 44.48V40.556ZM78.7003 47.126C77.7283 47.126 76.8523 46.916 76.0723 46.496C75.2923 46.076 74.6803 45.494 74.2363 44.75C73.8043 43.994 73.5883 43.142 73.5883 42.194C73.5883 41.246 73.8043 40.4 74.2363 39.656C74.6803 38.912 75.2923 38.33 76.0723 37.91C76.8523 37.49 77.7283 37.28 78.7003 37.28C79.6843 37.28 80.5663 37.49 81.3463 37.91C82.1263 38.33 82.7323 38.912 83.1643 39.656C83.6083 40.4 83.8303 41.246 83.8303 42.194C83.8303 43.142 83.6083 43.994 83.1643 44.75C82.7323 45.494 82.1263 46.076 81.3463 46.496C80.5663 46.916 79.6843 47.126 78.7003 47.126ZM78.7003 45.2C79.5283 45.2 80.2123 44.924 80.7523 44.372C81.2923 43.82 81.5623 43.094 81.5623 42.194C81.5623 41.294 81.2923 40.568 80.7523 40.016C80.2123 39.464 79.5283 39.188 78.7003 39.188C77.8723 39.188 77.1883 39.464 76.6483 40.016C76.1203 40.568 75.8563 41.294 75.8563 42.194C75.8563 43.094 76.1203 43.82 76.6483 44.372C77.1883 44.924 77.8723 45.2 78.7003 45.2ZM90.3019 47.126C89.3299 47.126 88.4539 46.916 87.6739 46.496C86.8939 46.076 86.2819 45.494 85.8379 44.75C85.4059 43.994 85.1899 43.142 85.1899 42.194C85.1899 41.246 85.4059 40.4 85.8379 39.656C86.2819 38.912 86.8939 38.33 87.6739 37.91C88.4539 37.49 89.3299 37.28 90.3019 37.28C91.2859 37.28 92.1679 37.49 92.9479 37.91C93.7279 38.33 94.3339 38.912 94.7659 39.656C95.2099 40.4 95.4319 41.246 95.4319 42.194C95.4319 43.142 95.2099 43.994 94.7659 44.75C94.3339 45.494 93.7279 46.076 92.9479 46.496C92.1679 46.916 91.2859 47.126 90.3019 47.126ZM90.3019 45.2C91.1299 45.2 91.8139 44.924 92.3539 44.372C92.8939 43.82 93.1639 43.094 93.1639 42.194C93.1639 41.294 92.8939 40.568 92.3539 40.016C91.8139 39.464 91.1299 39.188 90.3019 39.188C89.4739 39.188 88.7899 39.464 88.2499 40.016C87.7219 40.568 87.4579 41.294 87.4579 42.194C87.4579 43.094 87.7219 43.82 88.2499 44.372C88.7899 44.924 89.4739 45.2 90.3019 45.2ZM107.123 37.388V45.542C107.123 48.926 105.395 50.618 101.939 50.618C101.015 50.618 100.139 50.498 99.3114 50.258C98.4834 50.03 97.7994 49.694 97.2594 49.25L98.2674 47.558C98.6874 47.906 99.2154 48.182 99.8514 48.386C100.499 48.602 101.153 48.71 101.813 48.71C102.869 48.71 103.643 48.47 104.135 47.99C104.627 47.51 104.873 46.778 104.873 45.794V45.29C104.489 45.71 104.021 46.028 103.469 46.244C102.917 46.46 102.311 46.568 101.651 46.568C100.739 46.568 99.9114 46.376 99.1674 45.992C98.4354 45.596 97.8534 45.044 97.4214 44.336C97.0014 43.628 96.7914 42.818 96.7914 41.906C96.7914 40.994 97.0014 40.19 97.4214 39.494C97.8534 38.786 98.4354 38.24 99.1674 37.856C99.9114 37.472 100.739 37.28 101.651 37.28C102.347 37.28 102.977 37.394 103.541 37.622C104.117 37.85 104.597 38.198 104.981 38.666V37.388H107.123ZM101.993 44.66C102.845 44.66 103.541 44.408 104.081 43.904C104.633 43.388 104.909 42.722 104.909 41.906C104.909 41.102 104.633 40.448 104.081 39.944C103.541 39.44 102.845 39.188 101.993 39.188C101.129 39.188 100.421 39.44 99.8694 39.944C99.3294 40.448 99.0594 41.102 99.0594 41.906C99.0594 42.722 99.3294 43.388 99.8694 43.904C100.421 44.408 101.129 44.66 101.993 44.66ZM110.081 33.644H112.331V47H110.081V33.644ZM124.321 42.248C124.321 42.404 124.309 42.626 124.285 42.914H116.743C116.875 43.622 117.217 44.186 117.769 44.606C118.333 45.014 119.029 45.218 119.857 45.218C120.913 45.218 121.783 44.87 122.467 44.174L123.673 45.56C123.241 46.076 122.695 46.466 122.035 46.73C121.375 46.994 120.631 47.126 119.803 47.126C118.747 47.126 117.817 46.916 117.013 46.496C116.209 46.076 115.585 45.494 115.141 44.75C114.709 43.994 114.493 43.142 114.493 42.194C114.493 41.258 114.703 40.418 115.123 39.674C115.555 38.918 116.149 38.33 116.905 37.91C117.661 37.49 118.513 37.28 119.461 37.28C120.397 37.28 121.231 37.49 121.963 37.91C122.707 38.318 123.283 38.9 123.691 39.656C124.111 40.4 124.321 41.264 124.321 42.248ZM119.461 39.08C118.741 39.08 118.129 39.296 117.625 39.728C117.133 40.148 116.833 40.712 116.725 41.42H122.179C122.083 40.724 121.789 40.16 121.297 39.728C120.805 39.296 120.193 39.08 119.461 39.08ZM136.856 34.4C137.948 34.4 138.896 34.58 139.7 34.94C140.516 35.3 141.14 35.816 141.572 36.488C142.004 37.16 142.22 37.958 142.22 38.882C142.22 39.794 142.004 40.592 141.572 41.276C141.14 41.948 140.516 42.464 139.7 42.824C138.896 43.184 137.948 43.364 136.856 43.364H134.012V47H131.672V34.4H136.856ZM136.748 41.384C137.768 41.384 138.542 41.168 139.07 40.736C139.598 40.304 139.862 39.686 139.862 38.882C139.862 38.078 139.598 37.46 139.07 37.028C138.542 36.596 137.768 36.38 136.748 36.38H134.012V41.384H136.748ZM144.517 33.644H146.767V47H144.517V33.644ZM153.392 37.28C154.808 37.28 155.888 37.622 156.632 38.306C157.388 38.978 157.766 39.998 157.766 41.366V47H155.642V45.83C155.366 46.25 154.97 46.574 154.454 46.802C153.95 47.018 153.338 47.126 152.618 47.126C151.898 47.126 151.268 47.006 150.728 46.766C150.188 46.514 149.768 46.172 149.468 45.74C149.18 45.296 149.036 44.798 149.036 44.246C149.036 43.382 149.354 42.692 149.99 42.176C150.638 41.648 151.652 41.384 153.032 41.384H155.516V41.24C155.516 40.568 155.312 40.052 154.904 39.692C154.508 39.332 153.914 39.152 153.122 39.152C152.582 39.152 152.048 39.236 151.52 39.404C151.004 39.572 150.566 39.806 150.206 40.106L149.324 38.468C149.828 38.084 150.434 37.79 151.142 37.586C151.85 37.382 152.6 37.28 153.392 37.28ZM153.086 45.488C153.65 45.488 154.148 45.362 154.58 45.11C155.024 44.846 155.336 44.474 155.516 43.994V42.878H153.194C151.898 42.878 151.25 43.304 151.25 44.156C151.25 44.564 151.412 44.888 151.736 45.128C152.06 45.368 152.51 45.488 153.086 45.488ZM169.478 37.388L164.978 47.774C164.558 48.818 164.048 49.55 163.448 49.97C162.848 50.402 162.122 50.618 161.27 50.618C160.79 50.618 160.316 50.54 159.848 50.384C159.38 50.228 158.996 50.012 158.696 49.736L159.596 48.08C159.812 48.284 160.064 48.446 160.352 48.566C160.652 48.686 160.952 48.746 161.252 48.746C161.648 48.746 161.972 48.644 162.224 48.44C162.488 48.236 162.728 47.894 162.944 47.414L163.106 47.036L158.912 37.388H161.252L164.276 44.498L167.318 37.388H169.478Z" fill="white"/>
<path d="M60.596 17.2H64.586C65.622 17.2 66.5367 17.41 67.33 17.83C68.1233 18.2407 68.7393 18.8193 69.178 19.566C69.6167 20.3033 69.836 21.148 69.836 22.1C69.836 23.052 69.6167 23.9013 69.178 24.648C68.7393 25.3853 68.1233 25.964 67.33 26.384C66.5367 26.7947 65.622 27 64.586 27H60.596V17.2ZM64.53 26.104C65.3887 26.104 66.14 25.936 66.784 25.6C67.428 25.2547 67.9273 24.7833 68.282 24.186C68.6367 23.5793 68.814 22.884 68.814 22.1C68.814 21.316 68.6367 20.6253 68.282 20.028C67.9273 19.4213 67.428 18.95 66.784 18.614C66.14 18.2687 65.3887 18.096 64.53 18.096H61.632V26.104H64.53ZM74.9624 27.07C74.2531 27.07 73.6137 26.9113 73.0444 26.594C72.4751 26.2673 72.0271 25.8193 71.7004 25.25C71.3737 24.6807 71.2104 24.0367 71.2104 23.318C71.2104 22.5993 71.3737 21.9553 71.7004 21.386C72.0271 20.8167 72.4751 20.3733 73.0444 20.056C73.6137 19.7387 74.2531 19.58 74.9624 19.58C75.6717 19.58 76.3111 19.7387 76.8804 20.056C77.4497 20.3733 77.8931 20.8167 78.2104 21.386C78.5371 21.9553 78.7004 22.5993 78.7004 23.318C78.7004 24.0367 78.5371 24.6807 78.2104 25.25C77.8931 25.8193 77.4497 26.2673 76.8804 26.594C76.3111 26.9113 75.6717 27.07 74.9624 27.07ZM74.9624 26.188C75.4851 26.188 75.9517 26.0713 76.3624 25.838C76.7824 25.5953 77.1091 25.2547 77.3424 24.816C77.5757 24.3773 77.6924 23.878 77.6924 23.318C77.6924 22.758 77.5757 22.2587 77.3424 21.82C77.1091 21.3813 76.7824 21.0453 76.3624 20.812C75.9517 20.5693 75.4851 20.448 74.9624 20.448C74.4397 20.448 73.9684 20.5693 73.5484 20.812C73.1377 21.0453 72.8111 21.3813 72.5684 21.82C72.3351 22.2587 72.2184 22.758 72.2184 23.318C72.2184 23.878 72.3351 24.3773 72.5684 24.816C72.8111 25.2547 73.1377 25.5953 73.5484 25.838C73.9684 26.0713 74.4397 26.188 74.9624 26.188ZM91.3327 19.636L88.5467 27H87.6087L85.2847 20.966L82.9607 27H82.0227L79.2507 19.636H80.2027L82.5127 25.894L84.8787 19.636H85.7327L88.0847 25.894L90.4227 19.636H91.3327ZM96.5814 19.58C97.5054 19.58 98.238 19.8507 98.7794 20.392C99.33 20.924 99.6054 21.7033 99.6054 22.73V27H98.6114V22.828C98.6114 22.0627 98.42 21.4793 98.0374 21.078C97.6547 20.6767 97.1087 20.476 96.3994 20.476C95.606 20.476 94.976 20.714 94.5094 21.19C94.052 21.6567 93.8234 22.3053 93.8234 23.136V27H92.8294V19.636H93.7814V20.994C94.052 20.546 94.4254 20.2007 94.9014 19.958C95.3867 19.706 95.9467 19.58 96.5814 19.58ZM102.304 16.612H103.298V27H102.304V16.612ZM109.074 27.07C108.364 27.07 107.725 26.9113 107.156 26.594C106.586 26.2673 106.138 25.8193 105.812 25.25C105.485 24.6807 105.322 24.0367 105.322 23.318C105.322 22.5993 105.485 21.9553 105.812 21.386C106.138 20.8167 106.586 20.3733 107.156 20.056C107.725 19.7387 108.364 19.58 109.074 19.58C109.783 19.58 110.422 19.7387 110.992 20.056C111.561 20.3733 112.004 20.8167 112.322 21.386C112.648 21.9553 112.812 22.5993 112.812 23.318C112.812 24.0367 112.648 24.6807 112.322 25.25C112.004 25.8193 111.561 26.2673 110.992 26.594C110.422 26.9113 109.783 27.07 109.074 27.07ZM109.074 26.188C109.596 26.188 110.063 26.0713 110.474 25.838C110.894 25.5953 111.22 25.2547 111.454 24.816C111.687 24.3773 111.804 23.878 111.804 23.318C111.804 22.758 111.687 22.2587 111.454 21.82C111.22 21.3813 110.894 21.0453 110.474 20.812C110.063 20.5693 109.596 20.448 109.074 20.448C108.551 20.448 108.08 20.5693 107.66 20.812C107.249 21.0453 106.922 21.3813 106.68 21.82C106.446 22.2587 106.33 22.758 106.33 23.318C106.33 23.878 106.446 24.3773 106.68 24.816C106.922 25.2547 107.249 25.5953 107.66 25.838C108.08 26.0713 108.551 26.188 109.074 26.188ZM117.376 19.58C118.337 19.58 119.075 19.8227 119.588 20.308C120.101 20.784 120.358 21.4933 120.358 22.436V27H119.406V25.852C119.182 26.2347 118.851 26.5333 118.412 26.748C117.983 26.9627 117.469 27.07 116.872 27.07C116.051 27.07 115.397 26.874 114.912 26.482C114.427 26.09 114.184 25.572 114.184 24.928C114.184 24.3027 114.408 23.7987 114.856 23.416C115.313 23.0333 116.037 22.842 117.026 22.842H119.364V22.394C119.364 21.7593 119.187 21.2787 118.832 20.952C118.477 20.616 117.959 20.448 117.278 20.448C116.811 20.448 116.363 20.5273 115.934 20.686C115.505 20.8353 115.136 21.0453 114.828 21.316L114.38 20.574C114.753 20.2567 115.201 20.014 115.724 19.846C116.247 19.6687 116.797 19.58 117.376 19.58ZM117.026 26.286C117.586 26.286 118.067 26.16 118.468 25.908C118.869 25.6467 119.168 25.2733 119.364 24.788V23.584H117.054C115.794 23.584 115.164 24.0227 115.164 24.9C115.164 25.3293 115.327 25.67 115.654 25.922C115.981 26.1647 116.438 26.286 117.026 26.286ZM129.805 16.612V27H128.853V25.544C128.555 26.0387 128.158 26.4167 127.663 26.678C127.178 26.9393 126.627 27.07 126.011 27.07C125.321 27.07 124.695 26.9113 124.135 26.594C123.575 26.2767 123.137 25.8333 122.819 25.264C122.502 24.6947 122.343 24.046 122.343 23.318C122.343 22.59 122.502 21.9413 122.819 21.372C123.137 20.8027 123.575 20.364 124.135 20.056C124.695 19.7387 125.321 19.58 126.011 19.58C126.609 19.58 127.145 19.706 127.621 19.958C128.107 20.2007 128.503 20.56 128.811 21.036V16.612H129.805ZM126.095 26.188C126.609 26.188 127.071 26.0713 127.481 25.838C127.901 25.5953 128.228 25.2547 128.461 24.816C128.704 24.3773 128.825 23.878 128.825 23.318C128.825 22.758 128.704 22.2587 128.461 21.82C128.228 21.3813 127.901 21.0453 127.481 20.812C127.071 20.5693 126.609 20.448 126.095 20.448C125.573 20.448 125.101 20.5693 124.681 20.812C124.271 21.0453 123.944 21.3813 123.701 21.82C123.468 22.2587 123.351 22.758 123.351 23.318C123.351 23.878 123.468 24.3773 123.701 24.816C123.944 25.2547 124.271 25.5953 124.681 25.838C125.101 26.0713 125.573 26.188 126.095 26.188ZM139.248 27.07C138.538 27.07 137.899 26.9113 137.33 26.594C136.76 26.2673 136.312 25.8193 135.986 25.25C135.659 24.6807 135.496 24.0367 135.496 23.318C135.496 22.5993 135.659 21.9553 135.986 21.386C136.312 20.8167 136.76 20.3733 137.33 20.056C137.899 19.7387 138.538 19.58 139.248 19.58C139.957 19.58 140.596 19.7387 141.166 20.056C141.735 20.3733 142.178 20.8167 142.496 21.386C142.822 21.9553 142.986 22.5993 142.986 23.318C142.986 24.0367 142.822 24.6807 142.496 25.25C142.178 25.8193 141.735 26.2673 141.166 26.594C140.596 26.9113 139.957 27.07 139.248 27.07ZM139.248 26.188C139.77 26.188 140.237 26.0713 140.648 25.838C141.068 25.5953 141.394 25.2547 141.628 24.816C141.861 24.3773 141.978 23.878 141.978 23.318C141.978 22.758 141.861 22.2587 141.628 21.82C141.394 21.3813 141.068 21.0453 140.648 20.812C140.237 20.5693 139.77 20.448 139.248 20.448C138.725 20.448 138.254 20.5693 137.834 20.812C137.423 21.0453 137.096 21.3813 136.854 21.82C136.62 22.2587 136.504 22.758 136.504 23.318C136.504 23.878 136.62 24.3773 136.854 24.816C137.096 25.2547 137.423 25.5953 137.834 25.838C138.254 26.0713 138.725 26.188 139.248 26.188ZM148.767 19.58C149.691 19.58 150.424 19.8507 150.965 20.392C151.516 20.924 151.791 21.7033 151.791 22.73V27H150.797V22.828C150.797 22.0627 150.606 21.4793 150.223 21.078C149.84 20.6767 149.294 20.476 148.585 20.476C147.792 20.476 147.162 20.714 146.695 21.19C146.238 21.6567 146.009 22.3053 146.009 23.136V27H145.015V19.636H145.967V20.994C146.238 20.546 146.611 20.2007 147.087 19.958C147.572 19.706 148.132 19.58 148.767 19.58Z" fill="white"/>
<path d="M19.5063 44.7315C19.5063 45.8574 20.2569 46.6081 21.3829 46.6081H23.2594V53.1761C23.2594 54.6773 24.573 55.9909 26.0743 55.9909C27.5756 55.9909 28.8892 54.6773 28.8892 53.1761V46.6081H32.6423V53.1761C32.6423 54.6773 33.9559 55.9909 35.4572 55.9909C36.9584 55.9909 38.272 54.6773 38.272 53.1761V46.6081H40.1486C41.2746 46.6081 42.0252 45.8574 42.0252 44.7315V25.9657H19.5063V44.7315ZM14.8149 25.9657C13.3136 25.9657 12 27.2794 12 28.7806V41.9166C12 43.4179 13.3136 44.7315 14.8149 44.7315C16.3161 44.7315 17.6297 43.4179 17.6297 41.9166V28.7806C17.6297 27.2794 16.3161 25.9657 14.8149 25.9657ZM46.7166 25.9657C45.2154 25.9657 43.9018 27.2794 43.9018 28.7806V41.9166C43.9018 43.4179 45.2154 44.7315 46.7166 44.7315C48.2179 44.7315 49.5315 43.4179 49.5315 41.9166V28.7806C49.5315 27.2794 48.2179 25.9657 46.7166 25.9657ZM37.3337 15.0816L39.7733 12.6421C40.1486 12.2668 40.1486 11.7038 39.7733 11.3285C39.3979 10.9531 38.835 10.9531 38.4596 11.3285L35.6448 14.1433C34.3312 13.205 32.6422 12.8297 30.7657 12.8297C28.8891 12.8297 27.2002 13.205 25.6989 13.9556L23.0717 11.1407C22.6964 10.9531 21.9458 10.9531 21.5705 11.1407C21.3828 11.5161 21.3828 12.2668 21.5705 12.642L24.01 15.0815C21.3828 17.1458 19.5062 20.3359 19.5062 24.089H42.0251C42.0252 20.336 40.1486 16.9582 37.3337 15.0816ZM27.0126 20.336H25.136V18.4595H27.0126V20.336ZM36.3955 20.336H34.5189V18.4595H36.3955V20.336Z" fill="white"/>
</svg>
