<svg width="182" height="65" viewBox="0 0 182 65" fill="none" xmlns="http://www.w3.org/2000/svg">
<rect width="182" height="65" rx="4" fill="black"/>
<path d="M65.596 15.2H69.586C70.622 15.2 71.5367 15.41 72.33 15.83C73.1233 16.2407 73.7393 16.8193 74.178 17.566C74.6167 18.3033 74.836 19.148 74.836 20.1C74.836 21.052 74.6167 21.9013 74.178 22.648C73.7393 23.3853 73.1233 23.964 72.33 24.384C71.5367 24.7947 70.622 25 69.586 25H65.596V15.2ZM69.53 24.104C70.3887 24.104 71.14 23.936 71.784 23.6C72.428 23.2547 72.9273 22.7833 73.282 22.186C73.6367 21.5793 73.814 20.884 73.814 20.1C73.814 19.316 73.6367 18.6253 73.282 18.028C72.9273 17.4213 72.428 16.95 71.784 16.614C71.14 16.2687 70.3887 16.096 69.53 16.096H66.632V24.104H69.53ZM79.9624 25.07C79.2531 25.07 78.6137 24.9113 78.0444 24.594C77.4751 24.2673 77.0271 23.8193 76.7004 23.25C76.3737 22.6807 76.2104 22.0367 76.2104 21.318C76.2104 20.5993 76.3737 19.9553 76.7004 19.386C77.0271 18.8167 77.4751 18.3733 78.0444 18.056C78.6137 17.7387 79.2531 17.58 79.9624 17.58C80.6717 17.58 81.3111 17.7387 81.8804 18.056C82.4497 18.3733 82.8931 18.8167 83.2104 19.386C83.5371 19.9553 83.7004 20.5993 83.7004 21.318C83.7004 22.0367 83.5371 22.6807 83.2104 23.25C82.8931 23.8193 82.4497 24.2673 81.8804 24.594C81.3111 24.9113 80.6717 25.07 79.9624 25.07ZM79.9624 24.188C80.4851 24.188 80.9517 24.0713 81.3624 23.838C81.7824 23.5953 82.1091 23.2547 82.3424 22.816C82.5757 22.3773 82.6924 21.878 82.6924 21.318C82.6924 20.758 82.5757 20.2587 82.3424 19.82C82.1091 19.3813 81.7824 19.0453 81.3624 18.812C80.9517 18.5693 80.4851 18.448 79.9624 18.448C79.4397 18.448 78.9684 18.5693 78.5484 18.812C78.1377 19.0453 77.8111 19.3813 77.5684 19.82C77.3351 20.2587 77.2184 20.758 77.2184 21.318C77.2184 21.878 77.3351 22.3773 77.5684 22.816C77.8111 23.2547 78.1377 23.5953 78.5484 23.838C78.9684 24.0713 79.4397 24.188 79.9624 24.188ZM96.3327 17.636L93.5467 25H92.6087L90.2847 18.966L87.9607 25H87.0227L84.2507 17.636H85.2027L87.5127 23.894L89.8787 17.636H90.7327L93.0847 23.894L95.4227 17.636H96.3327ZM101.581 17.58C102.505 17.58 103.238 17.8507 103.779 18.392C104.33 18.924 104.605 19.7033 104.605 20.73V25H103.611V20.828C103.611 20.0627 103.42 19.4793 103.037 19.078C102.655 18.6767 102.109 18.476 101.399 18.476C100.606 18.476 99.976 18.714 99.5094 19.19C99.052 19.6567 98.8234 20.3053 98.8234 21.136V25H97.8294V17.636H98.7814V18.994C99.052 18.546 99.4254 18.2007 99.9014 17.958C100.387 17.706 100.947 17.58 101.581 17.58ZM107.304 14.612H108.298V25H107.304V14.612ZM114.074 25.07C113.364 25.07 112.725 24.9113 112.156 24.594C111.586 24.2673 111.138 23.8193 110.812 23.25C110.485 22.6807 110.322 22.0367 110.322 21.318C110.322 20.5993 110.485 19.9553 110.812 19.386C111.138 18.8167 111.586 18.3733 112.156 18.056C112.725 17.7387 113.364 17.58 114.074 17.58C114.783 17.58 115.422 17.7387 115.992 18.056C116.561 18.3733 117.004 18.8167 117.322 19.386C117.648 19.9553 117.812 20.5993 117.812 21.318C117.812 22.0367 117.648 22.6807 117.322 23.25C117.004 23.8193 116.561 24.2673 115.992 24.594C115.422 24.9113 114.783 25.07 114.074 25.07ZM114.074 24.188C114.596 24.188 115.063 24.0713 115.474 23.838C115.894 23.5953 116.22 23.2547 116.454 22.816C116.687 22.3773 116.804 21.878 116.804 21.318C116.804 20.758 116.687 20.2587 116.454 19.82C116.22 19.3813 115.894 19.0453 115.474 18.812C115.063 18.5693 114.596 18.448 114.074 18.448C113.551 18.448 113.08 18.5693 112.66 18.812C112.249 19.0453 111.922 19.3813 111.68 19.82C111.446 20.2587 111.33 20.758 111.33 21.318C111.33 21.878 111.446 22.3773 111.68 22.816C111.922 23.2547 112.249 23.5953 112.66 23.838C113.08 24.0713 113.551 24.188 114.074 24.188ZM122.376 17.58C123.337 17.58 124.075 17.8227 124.588 18.308C125.101 18.784 125.358 19.4933 125.358 20.436V25H124.406V23.852C124.182 24.2347 123.851 24.5333 123.412 24.748C122.983 24.9627 122.469 25.07 121.872 25.07C121.051 25.07 120.397 24.874 119.912 24.482C119.427 24.09 119.184 23.572 119.184 22.928C119.184 22.3027 119.408 21.7987 119.856 21.416C120.313 21.0333 121.037 20.842 122.026 20.842H124.364V20.394C124.364 19.7593 124.187 19.2787 123.832 18.952C123.477 18.616 122.959 18.448 122.278 18.448C121.811 18.448 121.363 18.5273 120.934 18.686C120.505 18.8353 120.136 19.0453 119.828 19.316L119.38 18.574C119.753 18.2567 120.201 18.014 120.724 17.846C121.247 17.6687 121.797 17.58 122.376 17.58ZM122.026 24.286C122.586 24.286 123.067 24.16 123.468 23.908C123.869 23.6467 124.168 23.2733 124.364 22.788V21.584H122.054C120.794 21.584 120.164 22.0227 120.164 22.9C120.164 23.3293 120.327 23.67 120.654 23.922C120.981 24.1647 121.438 24.286 122.026 24.286ZM134.805 14.612V25H133.853V23.544C133.555 24.0387 133.158 24.4167 132.663 24.678C132.178 24.9393 131.627 25.07 131.011 25.07C130.321 25.07 129.695 24.9113 129.135 24.594C128.575 24.2767 128.137 23.8333 127.819 23.264C127.502 22.6947 127.343 22.046 127.343 21.318C127.343 20.59 127.502 19.9413 127.819 19.372C128.137 18.8027 128.575 18.364 129.135 18.056C129.695 17.7387 130.321 17.58 131.011 17.58C131.609 17.58 132.145 17.706 132.621 17.958C133.107 18.2007 133.503 18.56 133.811 19.036V14.612H134.805ZM131.095 24.188C131.609 24.188 132.071 24.0713 132.481 23.838C132.901 23.5953 133.228 23.2547 133.461 22.816C133.704 22.3773 133.825 21.878 133.825 21.318C133.825 20.758 133.704 20.2587 133.461 19.82C133.228 19.3813 132.901 19.0453 132.481 18.812C132.071 18.5693 131.609 18.448 131.095 18.448C130.573 18.448 130.101 18.5693 129.681 18.812C129.271 19.0453 128.944 19.3813 128.701 19.82C128.468 20.2587 128.351 20.758 128.351 21.318C128.351 21.878 128.468 22.3773 128.701 22.816C128.944 23.2547 129.271 23.5953 129.681 23.838C130.101 24.0713 130.573 24.188 131.095 24.188ZM144.248 25.07C143.538 25.07 142.899 24.9113 142.33 24.594C141.76 24.2673 141.312 23.8193 140.986 23.25C140.659 22.6807 140.496 22.0367 140.496 21.318C140.496 20.5993 140.659 19.9553 140.986 19.386C141.312 18.8167 141.76 18.3733 142.33 18.056C142.899 17.7387 143.538 17.58 144.248 17.58C144.957 17.58 145.596 17.7387 146.166 18.056C146.735 18.3733 147.178 18.8167 147.496 19.386C147.822 19.9553 147.986 20.5993 147.986 21.318C147.986 22.0367 147.822 22.6807 147.496 23.25C147.178 23.8193 146.735 24.2673 146.166 24.594C145.596 24.9113 144.957 25.07 144.248 25.07ZM144.248 24.188C144.77 24.188 145.237 24.0713 145.648 23.838C146.068 23.5953 146.394 23.2547 146.628 22.816C146.861 22.3773 146.978 21.878 146.978 21.318C146.978 20.758 146.861 20.2587 146.628 19.82C146.394 19.3813 146.068 19.0453 145.648 18.812C145.237 18.5693 144.77 18.448 144.248 18.448C143.725 18.448 143.254 18.5693 142.834 18.812C142.423 19.0453 142.096 19.3813 141.854 19.82C141.62 20.2587 141.504 20.758 141.504 21.318C141.504 21.878 141.62 22.3773 141.854 22.816C142.096 23.2547 142.423 23.5953 142.834 23.838C143.254 24.0713 143.725 24.188 144.248 24.188ZM153.767 17.58C154.691 17.58 155.424 17.8507 155.965 18.392C156.516 18.924 156.791 19.7033 156.791 20.73V25H155.797V20.828C155.797 20.0627 155.606 19.4793 155.223 19.078C154.84 18.6767 154.294 18.476 153.585 18.476C152.792 18.476 152.162 18.714 151.695 19.19C151.238 19.6567 151.009 20.3053 151.009 21.136V25H150.015V17.636H150.967V18.994C151.238 18.546 151.611 18.2007 152.087 17.958C152.572 17.706 153.132 17.58 153.767 17.58Z" fill="white"/>
<path d="M70.864 43.084H64.564L63.322 46H60.91L66.58 33.4H68.884L74.572 46H72.124L70.864 43.084ZM70.09 41.248L67.714 35.74L65.356 41.248H70.09ZM81.2864 36.28C82.2224 36.28 83.0564 36.484 83.7884 36.892C84.5324 37.3 85.1144 37.876 85.5344 38.62C85.9544 39.364 86.1644 40.222 86.1644 41.194C86.1644 42.166 85.9544 43.03 85.5344 43.786C85.1144 44.53 84.5324 45.106 83.7884 45.514C83.0564 45.922 82.2224 46.126 81.2864 46.126C79.9904 46.126 78.9644 45.694 78.2084 44.83V49.492H75.9584V36.388H78.1004V37.648C78.4724 37.192 78.9284 36.85 79.4684 36.622C80.0204 36.394 80.6264 36.28 81.2864 36.28ZM81.0344 44.2C81.8624 44.2 82.5404 43.924 83.0684 43.372C83.6084 42.82 83.8784 42.094 83.8784 41.194C83.8784 40.294 83.6084 39.568 83.0684 39.016C82.5404 38.464 81.8624 38.188 81.0344 38.188C80.4944 38.188 80.0084 38.314 79.5764 38.566C79.1444 38.806 78.8024 39.154 78.5504 39.61C78.2984 40.066 78.1724 40.594 78.1724 41.194C78.1724 41.794 78.2984 42.322 78.5504 42.778C78.8024 43.234 79.1444 43.588 79.5764 43.84C80.0084 44.08 80.4944 44.2 81.0344 44.2ZM93.6263 36.28C94.5623 36.28 95.3963 36.484 96.1283 36.892C96.8723 37.3 97.4543 37.876 97.8743 38.62C98.2943 39.364 98.5043 40.222 98.5043 41.194C98.5043 42.166 98.2943 43.03 97.8743 43.786C97.4543 44.53 96.8723 45.106 96.1283 45.514C95.3963 45.922 94.5623 46.126 93.6263 46.126C92.3303 46.126 91.3043 45.694 90.5483 44.83V49.492H88.2983V36.388H90.4403V37.648C90.8123 37.192 91.2683 36.85 91.8083 36.622C92.3603 36.394 92.9663 36.28 93.6263 36.28ZM93.3743 44.2C94.2023 44.2 94.8803 43.924 95.4083 43.372C95.9483 42.82 96.2183 42.094 96.2183 41.194C96.2183 40.294 95.9483 39.568 95.4083 39.016C94.8803 38.464 94.2023 38.188 93.3743 38.188C92.8343 38.188 92.3483 38.314 91.9163 38.566C91.4843 38.806 91.1423 39.154 90.8903 39.61C90.6383 40.066 90.5123 40.594 90.5123 41.194C90.5123 41.794 90.6383 42.322 90.8903 42.778C91.1423 43.234 91.4843 43.588 91.9163 43.84C92.3483 44.08 92.8343 44.2 93.3743 44.2ZM109.735 46.18C108.763 46.18 107.821 46.042 106.909 45.766C106.009 45.49 105.295 45.124 104.767 44.668L105.577 42.85C106.093 43.258 106.723 43.594 107.467 43.858C108.223 44.11 108.979 44.236 109.735 44.236C110.671 44.236 111.367 44.086 111.823 43.786C112.291 43.486 112.525 43.09 112.525 42.598C112.525 42.238 112.393 41.944 112.129 41.716C111.877 41.476 111.553 41.29 111.157 41.158C110.761 41.026 110.221 40.876 109.537 40.708C108.577 40.48 107.797 40.252 107.197 40.024C106.609 39.796 106.099 39.442 105.667 38.962C105.247 38.47 105.037 37.81 105.037 36.982C105.037 36.286 105.223 35.656 105.595 35.092C105.979 34.516 106.549 34.06 107.305 33.724C108.073 33.388 109.009 33.22 110.113 33.22C110.881 33.22 111.637 33.316 112.381 33.508C113.125 33.7 113.767 33.976 114.307 34.336L113.569 36.154C113.017 35.83 112.441 35.584 111.841 35.416C111.241 35.248 110.659 35.164 110.095 35.164C109.171 35.164 108.481 35.32 108.025 35.632C107.581 35.944 107.359 36.358 107.359 36.874C107.359 37.234 107.485 37.528 107.737 37.756C108.001 37.984 108.331 38.164 108.727 38.296C109.123 38.428 109.663 38.578 110.347 38.746C111.283 38.962 112.051 39.19 112.651 39.43C113.251 39.658 113.761 40.012 114.181 40.492C114.613 40.972 114.829 41.62 114.829 42.436C114.829 43.132 114.637 43.762 114.253 44.326C113.881 44.89 113.311 45.34 112.543 45.676C111.775 46.012 110.839 46.18 109.735 46.18ZM122.711 45.478C122.447 45.694 122.123 45.856 121.739 45.964C121.367 46.072 120.971 46.126 120.551 46.126C119.495 46.126 118.679 45.85 118.103 45.298C117.527 44.746 117.239 43.942 117.239 42.886V38.26H115.655V36.46H117.239V34.264H119.489V36.46H122.063V38.26H119.489V42.832C119.489 43.3 119.603 43.66 119.831 43.912C120.059 44.152 120.389 44.272 120.821 44.272C121.325 44.272 121.745 44.14 122.081 43.876L122.711 45.478ZM128.566 46.126C127.594 46.126 126.718 45.916 125.938 45.496C125.158 45.076 124.546 44.494 124.102 43.75C123.67 42.994 123.454 42.142 123.454 41.194C123.454 40.246 123.67 39.4 124.102 38.656C124.546 37.912 125.158 37.33 125.938 36.91C126.718 36.49 127.594 36.28 128.566 36.28C129.55 36.28 130.432 36.49 131.212 36.91C131.992 37.33 132.598 37.912 133.03 38.656C133.474 39.4 133.696 40.246 133.696 41.194C133.696 42.142 133.474 42.994 133.03 43.75C132.598 44.494 131.992 45.076 131.212 45.496C130.432 45.916 129.55 46.126 128.566 46.126ZM128.566 44.2C129.394 44.2 130.078 43.924 130.618 43.372C131.158 42.82 131.428 42.094 131.428 41.194C131.428 40.294 131.158 39.568 130.618 39.016C130.078 38.464 129.394 38.188 128.566 38.188C127.738 38.188 127.054 38.464 126.514 39.016C125.986 39.568 125.722 40.294 125.722 41.194C125.722 42.094 125.986 42.82 126.514 43.372C127.054 43.924 127.738 44.2 128.566 44.2ZM137.989 37.792C138.637 36.784 139.777 36.28 141.409 36.28V38.422C141.217 38.386 141.043 38.368 140.887 38.368C140.011 38.368 139.327 38.626 138.835 39.142C138.343 39.646 138.097 40.378 138.097 41.338V46H135.847V36.388H137.989V37.792ZM152.266 41.248C152.266 41.404 152.254 41.626 152.23 41.914H144.688C144.82 42.622 145.162 43.186 145.714 43.606C146.278 44.014 146.974 44.218 147.802 44.218C148.858 44.218 149.728 43.87 150.412 43.174L151.618 44.56C151.186 45.076 150.64 45.466 149.98 45.73C149.32 45.994 148.576 46.126 147.748 46.126C146.692 46.126 145.762 45.916 144.958 45.496C144.154 45.076 143.53 44.494 143.086 43.75C142.654 42.994 142.438 42.142 142.438 41.194C142.438 40.258 142.648 39.418 143.068 38.674C143.5 37.918 144.094 37.33 144.85 36.91C145.606 36.49 146.458 36.28 147.406 36.28C148.342 36.28 149.176 36.49 149.908 36.91C150.652 37.318 151.228 37.9 151.636 38.656C152.056 39.4 152.266 40.264 152.266 41.248ZM147.406 38.08C146.686 38.08 146.074 38.296 145.57 38.728C145.078 39.148 144.778 39.712 144.67 40.42H150.124C150.028 39.724 149.734 39.16 149.242 38.728C148.75 38.296 148.138 38.08 147.406 38.08Z" fill="white"/>
<path d="M47.5025 33.2685C47.4478 27.9572 51.8328 25.4155 52.0272 25.2879C49.5644 21.6894 45.732 21.1944 44.3625 21.1397C41.104 20.8057 37.9975 23.059 36.3394 23.059C34.6874 23.059 32.1305 21.1853 29.4247 21.2339C25.8657 21.2885 22.589 23.3049 20.7549 26.4874C17.0591 32.901 19.8074 42.4 23.409 47.608C25.1703 50.1528 27.2717 53.0103 30.026 52.9101C32.6801 52.8038 33.6823 51.1913 36.8921 51.1913C40.1019 51.1913 41.0038 52.9101 43.8098 52.8585C46.6674 52.8038 48.4742 50.2621 50.2203 47.7112C52.2428 44.7565 53.0749 41.8928 53.1265 41.7501C53.0597 41.7137 47.5602 39.6092 47.5025 33.2685Z" fill="white"/>
</svg>
