<svg width="23" height="17" viewBox="0 0 23 17" fill="none" xmlns="http://www.w3.org/2000/svg">
<path d="M22.5549 5.61354C22.7225 5.4763 22.9717 5.60469 22.9717 5.82161V14.875C22.9717 16.0482 22.0479 17 20.9092 17H3.03418C1.89551 17 0.97168 16.0482 0.97168 14.875V5.82604C0.97168 5.60469 1.2166 5.48073 1.38848 5.61797C2.35098 6.38828 3.62715 7.36667 8.00996 10.6471C8.9166 11.3289 10.4463 12.7633 11.9717 12.7544C13.5057 12.7677 15.0654 11.3023 15.9377 10.6471C20.3205 7.36667 21.5924 6.38385 22.5549 5.61354ZM11.9717 11.3333C12.9686 11.351 14.4037 10.0406 15.1256 9.50052C20.8275 5.23724 21.2615 4.86536 22.5764 3.80286C22.8256 3.60365 22.9717 3.29375 22.9717 2.96615V2.125C22.9717 0.951823 22.0479 0 20.9092 0H3.03418C1.89551 0 0.97168 0.951823 0.97168 2.125V2.96615C0.97168 3.29375 1.11777 3.59922 1.36699 3.80286C2.68184 4.86094 3.11582 5.23724 8.81777 9.50052C9.53965 10.0406 10.9748 11.351 11.9717 11.3333Z" fill="url(#paint0_linear)"/>
<defs>
<linearGradient id="paint0_linear" x1="7.84668" y1="17" x2="20.3745" y2="17" gradientUnits="userSpaceOnUse">
<stop stop-color="#E6B712"/>
<stop offset="1" stop-color="#CAAA3B"/>
</linearGradient>
</defs>
</svg>
