<svg width="24" height="25" viewBox="0 0 24 25" fill="none" xmlns="http://www.w3.org/2000/svg">
<path d="M18.8379 23.171L20.6101 19.3806C20.8024 18.9686 20.6712 18.4756 20.3025 18.2124L16.402 15.4545C16.0607 15.2132 15.5969 15.2263 15.272 15.4896L12.874 17.4064C10.2285 15.3978 8.29791 12.4637 7.53249 9.16112L10.2621 7.75612C10.6361 7.56343 10.8368 7.14933 10.7561 6.73921L9.83359 2.05211C9.74107 1.60339 9.3447 1.28215 8.89018 1.28924L4.70644 1.3572C4.27191 1.36455 3.89422 1.66868 3.80163 2.1019C1.70323 11.9201 7.9548 21.5907 17.7884 23.6924C18.2177 23.7841 18.6527 23.5684 18.8379 23.171Z" fill="url(#paint0_linear)"/>
<defs>
<linearGradient id="paint0_linear" x1="2.88399" y1="6.39542" x2="0.495036" y2="17.5732" gradientUnits="userSpaceOnUse">
<stop stop-color="#E6B712"/>
<stop offset="1" stop-color="#CAAA3B"/>
</linearGradient>
</defs>
</svg>
